<svg xmlns="http://www.w3.org/2000/svg" xmlns:xlink="http://www.w3.org/1999/xlink"><symbol id="advantages-all-inclusive" viewBox="0 0 38 32"><g fill="none"><path d="M28.7534 3.37533L26.4398 0L16.0732 15.1353L18.3868 18.5106L28.7534 3.37533ZM35.6945 0L18.3787 25.2494L11.5602 15.3023L9.24656 18.6776L18.3787 32L38 3.37533L35.6945 0ZM0 18.6776L9.1321 32L11.4458 28.6247L2.31368 15.3023L0 18.6776Z" fill="#011C40"/></g></symbol><symbol id="advantages-boat" viewBox="0 0 44 32"><g fill="none"><path d="M41.4386 25.7195L1.64777 17.2126C1.34201 17.1472 1.13593 17.7761 1.29431 18.277C3.83755 26.326 9.85818 32 16.8667 32H40.6041C40.7654 32 40.9069 31.8011 40.9546 31.5089L41.7481 26.6154C41.8155 26.1995 41.6667 25.7682 41.4386 25.7195Z" fill="#011C40"/><path d="M43.8843 11.771C43.7677 11.426 43.5778 11.1964 43.3644 11.1421L32.3643 8.35935C31.9676 8.26054 31.5943 8.79339 31.5401 9.55451C31.4859 10.3156 31.7689 11.0169 32.17 11.1183L33.4153 11.4329C33.5971 11.4788 33.7335 11.7738 33.7335 12.1216V14.2727C33.7335 14.6859 33.5443 15.0087 33.328 14.9642L30.3947 14.3673C30.2084 14.3311 30.0669 14.0319 30.0669 13.6771V7.58714C30.0669 7.44936 30.0881 7.31582 30.1285 7.20168L31.4103 3.55359C31.557 3.13618 31.5739 2.60186 31.4551 2.15527C31.3356 1.70721 31.0987 1.41502 30.8347 1.39138L15.4347 6.54269e-05C15.1875 -0.00417389 14.9478 0.197683 14.8033 0.581667C14.8033 0.581667 11.8729 8.39554 11.2305 10.1152C11.1535 10.3212 11.0244 10.4311 10.8924 10.4032L0.811081 8.35527C0.602854 8.31353 0.397462 8.44022 0.242774 8.70306C0.0887737 8.96752 0 9.34319 0 9.73826C0 11.0782 0.0916956 12.3916 0.264774 13.6662C0.302931 13.9473 0.432009 14.1517 0.583775 14.1851L42.015 23.0425C42.1902 23.08 42.3545 22.8756 42.4066 22.5555L43.9679 12.93C44.0309 12.5391 44.0002 12.1147 43.8843 11.771ZM21.1626 4.06427L20.5906 11.6639C20.5628 12.0326 20.3904 12.2956 20.1946 12.258C18.7639 11.984 13.3885 10.9113 13.3885 10.9113C13.1098 10.8542 12.9661 10.2489 13.1289 9.8149L15.6479 3.12379C15.7205 2.93172 15.8393 2.82182 15.964 2.83307L20.8172 3.27135C21.0328 3.29075 21.1934 3.65794 21.1626 4.06427ZM29.1127 5.0786L28.6617 6.35871C28.6214 6.47285 28.6001 6.60769 28.6001 6.74547V13.2306C28.6001 13.6438 28.4109 13.9667 28.1946 13.9221L22.3748 12.7395C22.1687 12.6978 22.0213 12.3388 22.0506 11.9492L22.6438 4.06997C22.6702 3.71517 22.8352 3.45641 23.0245 3.47304L28.8252 3.99758C29.1098 4.02252 29.2711 4.62777 29.1127 5.0786ZM38.1334 15.1674C38.1334 15.5805 37.9442 15.9034 37.7279 15.8589C37.7279 15.8589 36.2055 15.5332 35.5235 15.3803C35.3387 15.34 35.2001 15.0421 35.2001 14.6901V12.6782C35.2001 12.2581 35.3952 11.9324 35.6152 11.988L37.8152 12.5445C37.9971 12.5918 38.1334 12.8868 38.1334 13.2347V15.1674ZM42.1837 14.4689L41.9116 16.144C41.8603 16.4613 41.6968 16.6658 41.5222 16.6311L39.9272 16.3069C39.7417 16.2694 39.6001 15.9702 39.6001 15.6154V13.7927C39.6001 13.3725 39.7952 13.0469 40.0152 13.1025L41.8815 13.5742C42.1059 13.6313 42.2504 14.0571 42.1837 14.4689Z" fill="#011C40"/></g></symbol><symbol id="advantages-ship" viewBox="0 0 27 32"><g fill="none"><path d="M4.40549 16.3962L13.2165 9.93576C13.4162 9.8063 13.6711 9.8063 13.8708 9.93576L22.7254 16.3962V8.68818C22.7739 7.6312 21.9743 6.7343 20.9396 6.68484C20.9242 6.68407 20.9089 6.68356 20.8934 6.68322H6.23749C5.20189 6.70667 4.38094 7.58319 4.4039 8.6411C4.40423 8.6568 4.40473 8.67249 4.40549 8.68818V16.3962Z" fill="#011C40"/><path d="M15.7464 0H11.3845V5.34662H15.7464V0Z" fill="#011C40"/><path d="M24.2956 30.1638L27 21.03L23.2052 18.3122L22.9434 18.1785L14.0016 11.8072V30.6094H13.5217L12.6929 30.5649V11.8072L0 21.03L2.79163 30.1193L4.4039 31.9904C4.4039 31.9904 5.7624 31.9904 7.15817 31.9904C7.15817 31.9904 12.2467 31.997 13.5218 31.9904C14.8198 32.012 17.1251 31.9904 17.1251 31.9904H22.8127L24.2956 30.1638Z" fill="#011C40"/></g></symbol><symbol id="icon-phone" viewBox="0 0 18 18"><g fill="none"><path d="M18 13.42V16.956C18.0001 17.2092 17.9042 17.453 17.7316 17.6382C17.559 17.8234 17.3226 17.9363 17.07 17.954C16.633 17.984 16.276 18 16 18C7.163 18 0 10.837 0 2C0 1.724 0.015 1.367 0.046 0.93C0.0637224 0.677444 0.176581 0.441011 0.361804 0.268409C0.547026 0.0958068 0.790823 -0.000114433 1.044 2.56579e-07H4.58C4.70404 -0.000125334 4.8237 0.045859 4.91573 0.12902C5.00776 0.212182 5.0656 0.326583 5.078 0.45C5.101 0.68 5.122 0.863 5.142 1.002C5.34073 2.38892 5.748 3.73783 6.35 5.003C6.445 5.203 6.383 5.442 6.203 5.57L4.045 7.112C5.36445 10.1865 7.81455 12.6365 10.889 13.956L12.429 11.802C12.4919 11.714 12.5838 11.6509 12.6885 11.6237C12.7932 11.5964 12.9042 11.6068 13.002 11.653C14.267 12.2539 15.6156 12.6601 17.002 12.858C17.141 12.878 17.324 12.9 17.552 12.922C17.6752 12.9346 17.7894 12.9926 17.8724 13.0846C17.9553 13.1766 18.0012 13.2961 18.001 13.42H18Z" fill="#011C40"/></g></symbol><symbol id="icon-pin" viewBox="0 0 18 22"><g fill="none"><path d="M15.364 15.5563L9 22L2.636 15.5563C1.37734 14.2819 0.520187 12.6581 0.172928 10.8905C-0.17433 9.12277 0.00390685 7.29051 0.685099 5.62539C1.36629 3.96027 2.51984 2.53707 3.99988 1.53576C5.47992 0.534448 7.21998 0 9 0C10.78 0 12.5201 0.534448 14.0001 1.53576C15.4802 2.53707 16.6337 3.96027 17.3149 5.62539C17.9961 7.29051 18.1743 9.12277 17.8271 10.8905C17.4798 12.6581 16.6227 14.2819 15.364 15.5563ZM9 11.1377C9.53044 11.1377 10.0391 10.9243 10.4142 10.5445C10.7893 10.1648 11 9.64969 11 9.11262C11 8.57554 10.7893 8.06047 10.4142 7.6807C10.0391 7.30093 9.53044 7.08757 9 7.08757C8.46957 7.08757 7.96086 7.30093 7.58579 7.6807C7.21072 8.06047 7 8.57554 7 9.11262C7 9.64969 7.21072 10.1648 7.58579 10.5445C7.96086 10.9243 8.46957 11.1377 9 11.1377Z" fill="#011C40"/></g></symbol><symbol id="socials-icon-dzen" viewBox="0 0 17 16"><g fill="none"><path d="M16.0624 7.64569C16.0638 7.64569 16.0649 7.64569 16.0663 7.64569C16.1663 7.64569 16.2616 7.60482 16.3293 7.53321C16.3981 7.46056 16.4322 7.36311 16.4232 7.26461C16.0634 3.4074 12.9305 0.352511 8.97314 0.00112562C8.87281 -0.00655875 8.77176 0.0252267 8.69723 0.0926396C8.62269 0.159703 8.58113 0.254361 8.5822 0.35321C8.64455 5.47939 9.33828 7.57408 16.0624 7.64569ZM16.0624 8.35404C9.33828 8.42565 8.64491 10.5203 8.58256 15.6465C8.58149 15.7454 8.62305 15.84 8.69758 15.9071C8.76423 15.9668 8.85131 16 8.94089 16C8.95164 16 8.96275 15.9997 8.9735 15.9986C12.9309 15.6472 16.0638 12.5927 16.4232 8.73512C16.4322 8.63662 16.3985 8.53917 16.3293 8.46652C16.2602 8.39386 16.1638 8.35789 16.0624 8.35404ZM7.43698 0.00287211C3.49211 0.364387 0.369261 3.41858 0.011289 7.26531C0.00233071 7.36381 0.0360138 7.46126 0.105172 7.53391C0.172896 7.60552 0.26857 7.64603 0.368186 7.64603C0.36962 7.64603 0.371053 7.64603 0.372486 7.64603C7.07435 7.57094 7.76628 5.47729 7.82935 0.354607C7.83042 0.255758 7.7885 0.160751 7.71397 0.0936875C7.63872 0.0266238 7.53803 -0.00620942 7.43698 0.00287211ZM0.372128 8.3537C0.260687 8.34147 0.173255 8.39317 0.104813 8.46582C0.0360139 8.53847 0.0019724 8.63592 0.0109307 8.73442C0.368903 12.5812 3.49211 15.6353 7.43698 15.9969C7.44809 15.9979 7.45955 15.9983 7.47066 15.9983C7.56024 15.9983 7.64696 15.9654 7.71361 15.9057C7.78814 15.8386 7.83007 15.7436 7.82899 15.6448C7.76592 10.5224 7.07435 8.42879 0.372128 8.3537Z" fill="#F9FBFD"/></g></symbol><symbol id="socials-icon-odnoklassniki" viewBox="0 0 10 16"><g fill="none"><path d="M4.82193 2.42035C5.80332 2.42035 6.60144 3.18736 6.60144 4.1305C6.60144 5.0708 5.80332 5.83781 4.82193 5.83781C3.84054 5.83781 3.04243 5.0708 3.04243 4.1305C3.04243 3.18736 3.84054 2.42035 4.82193 2.42035ZM4.82193 8.25816C7.19264 8.25816 9.11995 6.40597 9.11995 4.1305C9.11995 1.85219 7.19264 0 4.82193 0C2.45123 0 0.526877 1.85219 0.526877 4.1305C0.526877 6.40597 2.45123 8.25816 4.82193 8.25816ZM6.56006 11.6273C7.43503 11.4342 8.27749 11.1018 9.05491 10.6331C9.64316 10.278 9.82052 9.53083 9.45102 8.96551C9.07856 8.39735 8.30409 8.22691 7.71289 8.58485C5.95408 9.6473 3.68979 9.6473 1.92802 8.58485C1.33978 8.22691 0.56235 8.39735 0.192851 8.96551C-0.176649 9.53083 0.000710447 10.278 0.588953 10.6331C1.36638 11.1018 2.20884 11.4342 3.08381 11.6273L0.680589 13.934C0.189894 14.4056 0.189894 15.1726 0.680589 15.6442C0.928892 15.88 1.24814 15.9993 1.57034 15.9993C1.89255 15.9993 2.21475 15.88 2.46305 15.6442L4.82193 13.3772L7.18377 15.6442C7.67447 16.1186 8.46963 16.1186 8.96328 15.6442C9.45397 15.1726 9.45397 14.4056 8.96328 13.934L6.56006 11.6273Z" fill="#F9FBFD"/></g></symbol><symbol id="socials-icon-reddit" viewBox="0 0 17 16"><g fill="none"><path d="M10.3891 0C9.86274 0 9.36878 0.260274 9.05196 0.635616C8.73513 1.01096 8.5605 1.46849 8.43327 1.95069C8.2312 2.72603 8.16883 3.5863 8.15386 4.36164C6.6745 4.45753 5.33485 4.88493 4.22221 5.54521C3.77067 5.17534 3.22682 4.96986 2.70543 4.97534C2.11169 4.98082 1.54788 5.23014 1.12877 5.74247C0.327973 6.72055 0.420277 8.32055 1.34831 9.27123C1.29093 9.56438 1.24852 9.86575 1.24852 10.1699C1.24852 13.3918 4.62635 16 8.79251 16C12.9587 16 16.3365 13.389 16.3365 10.1699C16.3365 9.86575 16.2941 9.56438 16.2367 9.27123C17.1647 8.32055 17.257 6.72055 16.4562 5.74247C16.0371 5.23014 15.4733 4.98082 14.8796 4.97534C14.3582 4.96986 13.8144 5.17534 13.3628 5.54521C12.2552 4.88767 10.923 4.46027 9.45111 4.36164C9.47107 3.64658 9.52346 2.90411 9.67064 2.34521C9.76295 1.99452 9.87271 1.73973 9.98997 1.6C10.1072 1.46027 10.192 1.40274 10.3891 1.40274C10.8157 1.40274 10.8706 1.53699 11.1276 1.86301C11.2573 2.0274 11.407 2.23288 11.6465 2.43288C11.8859 2.63288 12.2402 2.80548 12.6244 2.80548V1.40274C12.5171 1.40274 12.4971 1.4 12.4248 1.33699C12.3525 1.27397 12.2527 1.12877 12.1055 0.942466C11.8111 0.567123 11.2398 0 10.3891 0ZM14.5403 0.131507C13.5474 0.131507 12.7441 1.0137 12.7441 2.10411C12.7441 3.19452 13.5474 4.07671 14.5403 4.07671C15.5332 4.07671 16.3365 3.19452 16.3365 2.10411C16.3365 1.0137 15.5332 0.131507 14.5403 0.131507ZM14.5403 0.832877C15.179 0.832877 15.6979 1.40274 15.6979 2.10411C15.6979 2.80548 15.179 3.37534 14.5403 3.37534C13.9017 3.37534 13.3828 2.80548 13.3828 2.10411C13.3828 1.40274 13.9017 0.832877 14.5403 0.832877ZM8.79251 5.45753C12.3275 5.45753 15.3187 7.61918 15.3187 10.1699C15.3187 12.7233 12.3275 14.8822 8.79251 14.8822C5.25751 14.8822 2.26636 12.7233 2.26636 10.1699C2.26636 7.61918 5.25751 5.45753 8.79251 5.45753ZM2.72538 6.09315C2.90251 6.09589 3.08712 6.13973 3.26424 6.22466C2.6231 6.7589 2.11418 7.3726 1.76742 8.06575C1.52793 7.52329 1.59279 6.84658 1.88716 6.48767C2.10171 6.22466 2.39858 6.09041 2.72538 6.09315ZM14.8596 6.09315C15.1864 6.09041 15.4833 6.22466 15.6979 6.48767C15.9922 6.84658 16.0571 7.52329 15.8176 8.06575C15.4708 7.3726 14.9619 6.7589 14.3208 6.22466C14.4979 6.13973 14.6825 6.09589 14.8596 6.09315ZM6.23793 7.84658C5.59929 7.84658 5.08039 8.41644 5.08039 9.11781C5.08039 9.81918 5.59929 10.389 6.23793 10.389C6.87657 10.389 7.39547 9.81918 7.39547 9.11781C7.39547 8.41644 6.87657 7.84658 6.23793 7.84658ZM11.3471 7.84658C10.7084 7.84658 10.1895 8.41644 10.1895 9.11781C10.1895 9.81918 10.7084 10.389 11.3471 10.389C11.9857 10.389 12.5046 9.81918 12.5046 9.11781C12.5046 8.41644 11.9857 7.84658 11.3471 7.84658ZM5.61924 12.1644C6.02588 13.0877 7.28321 13.9836 8.79251 13.9836C10.3018 13.9836 11.5791 13.0877 11.9857 12.1644C11.2473 12.6877 10.0823 13.0411 8.79251 13.0411C7.50275 13.0411 6.35768 12.6877 5.61924 12.1644Z" fill="#F9FBFD"/></g></symbol></svg>